# xmcd CD database file
#
# Track frame offsets:
#	150
#	15995
#	34012
#	53580
#	72330
#	87357
#	104855
#	123272
#	141275
#	155210
#	174516
#
# Disc length: 2599 seconds
#
# Revision: 2
# Processed by: cddbd v1.5.2PL0 Copyright (c) Steve Scherf et al.
# Submitted via: jetAudio 7
#
DISCID=940a250b
DTITLE=Chritina Milian - So Amazing
DYEAR=1900
DGENRE=Blues
TTITLE0=Say I
TTITLE1=Twisted
TTITLE2=Gonna Tell Everybody
TTITLE3=Who´s Gonna Ride
TTITLE4=So Amazing
TTITLE5=Hot Boy
TTITLE6=Foolin'
TTITLE7=My Lovin' Goes
TTITLE8=Just A Little Bit
TTITLE9=Y' all Ain´t Nuthin'
TTITLE10=She Don´t Know
EXTD=
EXTT0=
EXTT1=
EXTT2=
EXTT3=
EXTT4=
EXTT5=
EXTT6=
EXTT7=
EXTT8=
EXTT9=
EXTT10=
PLAYORDER=
